<svg xmlns="http://www.w3.org/2000/svg" width="131" height="19"><defs><style>.cls-1 { fill: #fff; fill-rule: evenodd; }</style></defs><path id="Animizer.net" d="M8.94.77L.68 17.97h1.95l2.72-5.67h7.53l2.74 5.7h1.9L9.35.76h-.42zm3.18 9.9H6.15l3-6.25zM19.95 18h1.66v-4.68a16.7 16.7 0 0 1 .3-3.47 4.6 4.6 0 0 1 1.6-2.43 4.14 4.14 0 0 1 2.7-1 3.38 3.38 0 0 1 2.18.65 3.22 3.22 0 0 1 1.1 1.9 14.78 14.78 0 0 1 .2 2.94V18h1.66v-6.57a10.2 10.2 0 0 0-.54-3.83 4.34 4.34 0 0 0-1.66-1.95 4.63 4.63 0 0 0-2.57-.73 5.5 5.5 0 0 0-2.63.65 6.92 6.92 0 0 0-2.2 1.96V5.25H20V18zM34.4.4a1.3 1.3 0 0 0-.4.96 1.3 1.3 0 0 0 .4.95 1.3 1.3 0 0 0 .96.4 1.33 1.33 0 0 0 .97-.4 1.3 1.3 0 0 0 .4-.9 1.3 1.3 0 0 0-.4-.9 1.33 1.33 0 0 0-.97-.4 1.3 1.3 0 0 0-.96.4zm.13 17.6h1.67V5.24h-1.67V18zm5.1 0h1.67v-5.4a9.8 9.8 0 0 1 .48-3.56 4.07 4.07 0 0 1 1.5-1.84 3.75 3.75 0 0 1 2.14-.7 2.97 2.97 0 0 1 1.72.52 2.63 2.63 0 0 1 1.02 1.32 11.05 11.05 0 0 1 .3 3.13V18h1.65v-5a11.72 11.72 0 0 1 .5-3.9 4.05 4.05 0 0 1 1.5-1.88 3.76 3.76 0 0 1 2.2-.7 3.06 3.06 0 0 1 1.7.46 2.54 2.54 0 0 1 1 1.24 8.97 8.97 0 0 1 .3 2.82V18H59v-6.96a9.8 9.8 0 0 0-.5-3.6 4 4 0 0 0-1.54-1.85 4.23 4.23 0 0 0-2.36-.7 4.96 4.96 0 0 0-2.7.8 6.08 6.08 0 0 0-2.06 2.2 5.16 5.16 0 0 0-.93-1.77 3.83 3.83 0 0 0-1.3-.96 4.47 4.47 0 0 0-1.8-.38 5.1 5.1 0 0 0-2.6.73 6.4 6.4 0 0 0-1.8 1.8V5.2h-1.7V18zM62.1.4a1.3 1.3 0 0 0-.4.96 1.3 1.3 0 0 0 .4.95 1.3 1.3 0 0 0 .96.4 1.33 1.33 0 0 0 .97-.4 1.3 1.3 0 0 0 .4-.9 1.3 1.3 0 0 0-.43-1 1.33 1.33 0 0 0-.96-.4 1.3 1.3 0 0 0-.96.4zm.14 17.6h1.66V5.24h-1.66V18zm31-2.43a5.07 5.07 0 0 1-1.6.9 5.6 5.6 0 0 1-1.9.34 4.62 4.62 0 0 1-3.45-1.4 5.15 5.15 0 0 1-1.5-3.6h11.6A6.84 6.84 0 0 0 95 7.5 6.4 6.4 0 0 0 89.73 5a6.2 6.2 0 0 0-5.13 2.4 6.75 6.75 0 0 0-1.5 4.3 6.84 6.84 0 0 0 1.78 4.6 6.22 6.22 0 0 0 4.95 2.05 7.18 7.18 0 0 0 2.55-.43 6.34 6.34 0 0 0 2.06-1.24 7.54 7.54 0 0 0 1.6-2.16l-1.4-.75a7.66 7.66 0 0 1-1.43 1.8zM85 10.33a5.43 5.43 0 0 1 1.5-2.63 4.78 4.78 0 0 1 3.28-1.2 5.22 5.22 0 0 1 2.2.47 4.58 4.58 0 0 1 1.68 1.27 5.4 5.4 0 0 1 .97 2.1H85zM98.93 18h1.7v-4.32a19.76 19.76 0 0 1 .3-4.4 4.24 4.24 0 0 1 1.2-2.1 2.42 2.42 0 0 1 1.6-.66 2.34 2.34 0 0 1 .87.22l.86-1.38a3.06 3.06 0 0 0-1.47-.43 3.2 3.2 0 0 0-1.8.54 5.9 5.9 0 0 0-1.6 1.65V5.25h-1.7V18zm8.55-1.1a.84.84 0 0 0 0 1.18.8.8 0 0 0 1.15 0 .85.85 0 0 0 0-1.18.8.8 0 0 0-1.15 0zm3.3 1.23h.92v-2.67a9.8 9.8 0 0 1 .13-1.98 2.63 2.63 0 0 1 .88-1.4 2.26 2.26 0 0 1 1.5-.55 1.7 1.7 0 0 1 1.8 1.45 8.63 8.63 0 0 1 .1 1.68v3.47h1V14.4a6 6 0 0 0-.3-2.2 2.46 2.46 0 0 0-.9-1.12 2.52 2.52 0 0 0-1.4-.42 2.98 2.98 0 0 0-1.44.38 3.87 3.87 0 0 0-1.23 1.12v-1.3h-.9v7.28zm13.5-1.38a2.8 2.8 0 0 1-.88.5 3.02 3.02 0 0 1-1.06.2 2.53 2.53 0 0 1-1.9-.8 3 3 0 0 1-.8-2.08h6.45a3.98 3.98 0 0 0-.8-2.5 3.52 3.52 0 0 0-3-1.4 3.4 3.4 0 0 0-2.9 1.37 3.93 3.93 0 0 0-.84 2.47 3.97 3.97 0 0 0 1 2.7 3.4 3.4 0 0 0 2.73 1.2 3.9 3.9 0 0 0 1.44-.2 3.5 3.5 0 0 0 1.13-.72 4.3 4.3 0 0 0 .9-1.22l-.8-.4a4.34 4.34 0 0 1-.76 1.03zm-4.56-3a3.13 3.13 0 0 1 .84-1.5 2.6 2.6 0 0 1 1.82-.7 2.83 2.83 0 0 1 1.22.3 2.55 2.55 0 0 1 .93.7 3.13 3.13 0 0 1 .54 1.2h-5.35zm8.9-2.9h-1.26v.82h1.26v6.47h.92v-6.48H131v-.8h-1.47v-2.7h-.92v2.7zm-46.48-5.4l-7.36 11.52h6.6v1.36h-9.55L69.7 17l-.87 1.33h-1.7l7.4-11.53H67.9V5.42h9.5l-1.5 2.23 2.18 1.38 1.96-2.98-1-.62h3.1zm-11.68 10.4l2.2 1.4 1.96-2.98-2.2-1.4zm4.7-7.07l-1.98 2.97 2.2 1.38 1.95-2.97z" class="cls-1"/></svg>