<svg xmlns="http://www.w3.org/2000/svg" width="138" height="19"><defs><style>.cls-1 { fill: #fff; fill-rule: evenodd; }</style></defs><path d="M16.5 1.98A9.7 9.7 0 0 0 13.65.55 11.15 11.15 0 0 0 10.17 0a10.7 10.7 0 0 0-5.2 1.27 9.33 9.33 0 0 0-3.64 3.5A9.42 9.42 0 0 0 0 9.67a8.83 8.83 0 0 0 2.84 6.6A9.9 9.9 0 0 0 10 19a11.23 11.23 0 0 0 5-1.07 8.74 8.74 0 0 0 3.5-3.03l-1.87-1.2a8 8 0 0 1-6.53 3.16 8.1 8.1 0 0 1-3.95-.96 7.05 7.05 0 0 1-2.77-2.7 7.3 7.3 0 0 1-1-3.72 6.9 6.9 0 0 1 2.2-5.16 7.6 7.6 0 0 1 5.5-2.12 7.78 7.78 0 0 1 6.55 3.17l1.86-1.14a7.8 7.8 0 0 0-2-2.25zM27.06 0a4.94 4.94 0 0 0-3.57 1.36A4.55 4.55 0 0 0 22 4.78a4.67 4.67 0 0 0 .88 2.8 9.43 9.43 0 0 0 3.36 2.5 10.5 10.5 0 0 1 3 1.92 2.7 2.7 0 0 1 .65 1.78 2.76 2.76 0 0 1-.96 2.1 3.43 3.43 0 0 1-2.4.9 5.12 5.12 0 0 1-3.8-2l-1.46 1.66a6.5 6.5 0 0 0 2.34 1.87 6.9 6.9 0 0 0 3 .7 5.38 5.38 0 0 0 3.93-1.5 5.08 5.08 0 0 0 1.57-3.74 4.7 4.7 0 0 0-.9-2.84 10.5 10.5 0 0 0-3.56-2.6 9.4 9.4 0 0 1-2.8-1.9 2.57 2.57 0 0 1-.7-1.67 2.3 2.3 0 0 1 .8-1.75 2.78 2.78 0 0 1 1.95-.74A5.4 5.4 0 0 1 30.64 4l1.5-1.55A7.42 7.42 0 0 0 27.07 0zm13.28 0a4.94 4.94 0 0 0-3.58 1.36 4.55 4.55 0 0 0-1.4 3.42 4.67 4.67 0 0 0 .88 2.8 9.43 9.43 0 0 0 3.35 2.5A10.5 10.5 0 0 1 42.5 12a2.7 2.7 0 0 1 .65 1.78 2.76 2.76 0 0 1-.98 2.1 3.43 3.43 0 0 1-2.4.9 5.12 5.12 0 0 1-3.8-2l-1.48 1.66a6.5 6.5 0 0 0 2.3 1.88 6.9 6.9 0 0 0 3 .68 5.38 5.38 0 0 0 3.92-1.55 5.08 5.08 0 0 0 1.57-3.77 4.7 4.7 0 0 0-.93-2.84 10.5 10.5 0 0 0-3.55-2.6 9.4 9.4 0 0 1-2.8-1.9 2.57 2.57 0 0 1-.68-1.67 2.3 2.3 0 0 1 .8-1.74 2.78 2.78 0 0 1 1.95-.75 5.4 5.4 0 0 1 3.67 1.8l1.5-1.54a7.42 7.42 0 0 0-5-2.44zM110 18h1.27v-2H110v2zm6.53 0h.93v-4.05l-.08-1.83.02-.03 2.8 5.9h1.15v-7.1h-.93V15l.08 1.83-.03.03-2.8-5.93h-1.14V18zm8.74 0h4.5v-.8h-3.57v-2.5h2.95v-.8h-2.95v-2.1h3.57v-.82h-4.5V18zm9.85 0h.93v-6.2H138v-.82h-4.87v.8h2V18zm-81.97-.07h7.7V16.4h-6.1V2.17h-1.6v15.77zm11-10a6.04 6.04 0 0 0-1.62 4.2 6.05 6.05 0 0 0 1.72 4.27 6.23 6.23 0 0 0 8.8 0 6.05 6.05 0 0 0 1.72-4.27 6.05 6.05 0 0 0-1.62-4.22 6.15 6.15 0 0 0-9 .1zm7.73.9a4.6 4.6 0 0 1 1.36 3.33 4.72 4.72 0 0 1-.62 2.36 4.36 4.36 0 0 1-1.66 1.7 4.76 4.76 0 0 1-4.6 0 4.36 4.36 0 0 1-1.68-1.7 4.72 4.72 0 0 1-.62-2.36 4.6 4.6 0 0 1 1.36-3.34 4.47 4.47 0 0 1 6.46 0zm15.88-2.56V8.4a5.94 5.94 0 0 0-2.06-1.8 5.56 5.56 0 0 0-2.6-.6 5.82 5.82 0 0 0-4.3 1.78 5.9 5.9 0 0 0-1.77 4.3 6 6 0 0 0 1.77 4.37 5.97 5.97 0 0 0 6.84 1.22 6.46 6.46 0 0 0 2.12-1.72v2h1.5V6.27h-1.5zm-1.24 2.5a4.63 4.63 0 0 1 1.34 3.4 4.78 4.78 0 0 1-.6 2.38 4.36 4.36 0 0 1-1.7 1.68 4.74 4.74 0 0 1-2.35.62 4.48 4.48 0 0 1-2.3-.63 4.6 4.6 0 0 1-1.7-1.75 4.7 4.7 0 0 1 0-4.7 4.56 4.56 0 0 1 4.1-2.37 4.45 4.45 0 0 1 3.3 1.4zm16.35-7V8.4a5.95 5.95 0 0 0-2.06-1.82 5.56 5.56 0 0 0-2.6-.6A5.82 5.82 0 0 0 94 7.76a5.9 5.9 0 0 0-1.78 4.3 6 6 0 0 0 1.75 4.37 5.97 5.97 0 0 0 6.85 1.22 6.47 6.47 0 0 0 2.12-1.72v2h1.5V1.77h-1.5zm-1.24 7a4.63 4.63 0 0 1 1.34 3.4 4.78 4.78 0 0 1-.6 2.38 4.36 4.36 0 0 1-1.7 1.68 4.74 4.74 0 0 1-2.36.62 4.48 4.48 0 0 1-2.3-.63 4.6 4.6 0 0 1-1.7-1.75 4.7 4.7 0 0 1 0-4.7 4.56 4.56 0 0 1 4.1-2.37 4.46 4.46 0 0 1 3.3 1.4z" class="cls-1"/></svg>