<svg xmlns="http://www.w3.org/2000/svg" width="107" height="19"><defs><style>.cls-1 { fill: #fff; fill-rule: evenodd; }</style></defs><path id="CSSTool.net" d="M9.24 15.92a4.67 4.67 0 0 1-3.04.95 3.4 3.4 0 0 1-3.03-1.58 4.8 4.8 0 0 1-.77-2.7 4.1 4.1 0 0 1 .9-2.6 3.5 3.5 0 0 1 2.92-1.4 5.1 5.1 0 0 1 2.9.8 3.24 3.24 0 0 1 .9.8 3.1 3.1 0 0 0-.1-2q-.67-1.9-3.67-1.9a6.5 6.5 0 0 0-4.07 1.3 5.75 5.75 0 0 0-2.18 5q0 3.3 1.87 4.9a6.6 6.6 0 0 0 4.38 1.3q2.8 0 3.56-2a3.57 3.57 0 0 0 .3-1.4 3.68 3.68 0 0 0 0-.6 2.8 2.8 0 0 1-.8.9zm9.13-9.47a7.94 7.94 0 0 0-4.45 1.04 3.3 3.3 0 0 0-1.54 2.9 2.14 2.14 0 0 0 1.22 2.1 14.66 14.66 0 0 0 3.46.7 25.78 25.78 0 0 1 3.07.5 1.4 1.4 0 0 1 1.24 1.3A1.6 1.6 0 0 1 20 16.4a9.5 9.5 0 0 1-3 .4 7.9 7.9 0 0 1-2.3-.33 7.36 7.36 0 0 1-1.95-.87v.1a2.37 2.37 0 0 0 .2.9q.95 2.2 4.35 2.2a8.15 8.15 0 0 0 4.42-1 3.54 3.54 0 0 0 1.67-3.16 2.42 2.42 0 0 0-1.2-2.1 7.54 7.54 0 0 0-3.4-1q-2.8-.34-3.1-.4a1.26 1.26 0 0 1-1.3-1.1q0-.8 1.3-1.27a8.53 8.53 0 0 1 2.7-.38 6.8 6.8 0 0 1 3 .6 4.07 4.07 0 0 1 1.3 1v-.2a2.86 2.86 0 0 0-.3-1.3 3.26 3.26 0 0 0-1.3-1.3 5.76 5.76 0 0 0-3.06-.8zm12.52 0a7.94 7.94 0 0 0-4.5 1.05 3.3 3.3 0 0 0-1.6 2.9 2.14 2.14 0 0 0 1.2 2.12 14.66 14.66 0 0 0 3.4.7 25.78 25.78 0 0 1 3 .52A1.4 1.4 0 0 1 33.8 15a1.6 1.6 0 0 1-1.37 1.4 9.5 9.5 0 0 1-3 .4 7.9 7.9 0 0 1-2.3-.33 7.36 7.36 0 0 1-1.98-.87v.1a2.37 2.37 0 0 0 .2.9q.95 2.2 4.35 2.2a8.15 8.15 0 0 0 4.42-1 3.54 3.54 0 0 0 1.67-3.16 2.42 2.42 0 0 0-1.1-2.1 7.54 7.54 0 0 0-3.4-1q-2.8-.34-3.1-.4a1.26 1.26 0 0 1-1.3-1.1q0-.8 1.3-1.27A8.53 8.53 0 0 1 31 8.4a6.8 6.8 0 0 1 3.07.6 4.07 4.07 0 0 1 1.35 1v-.2a2.86 2.86 0 0 0-.26-1.3 3.26 3.26 0 0 0-1.3-1.3 5.76 5.76 0 0 0-3.06-.76zM54 9.6a4.6 4.6 0 0 1 1 3.03 4.6 4.6 0 0 1-1 3.04 3.66 3.66 0 0 1-5.5 0 4.6 4.6 0 0 1-1-3.04 4.6 4.6 0 0 1 1-3.03 3.66 3.66 0 0 1 5.5 0zm1.53 7.4a6 6 0 0 0 1.8-4.37 5.98 5.98 0 0 0-1.8-4.37 5.97 5.97 0 0 0-8.57 0 5.98 5.98 0 0 0-1.8 4.37A6 6 0 0 0 47 17a5.97 5.97 0 0 0 8.56 0zM68.4 9.6a4.6 4.6 0 0 1 1 3.03 4.6 4.6 0 0 1-1 3.04 3.66 3.66 0 0 1-5.5 0 4.6 4.6 0 0 1-1-3.04 4.6 4.6 0 0 1 1-3.03 3.66 3.66 0 0 1 5.5 0zm1.54 7.4a6 6 0 0 0 1.8-4.37 5.98 5.98 0 0 0-1.8-4.37 5.97 5.97 0 0 0-8.57 0 5.98 5.98 0 0 0-1.78 4.37A6 6 0 0 0 61.3 17a5.97 5.97 0 0 0 8.58 0zM76.9.73a.7.7 0 0 0-.15 0 1.26 1.26 0 0 0-.32.04 2.07 2.07 0 0 0-1 .8q-1.46 2.04-1.46 8t1.54 8.2a1.95 1.95 0 0 0 1.5 1.05h.1q-.6-6.17-.6-9.93a79.02 79.02 0 0 1 .4-8.2zM80.23 19a1 1 0 1 0-.9-1 .9.9 0 0 0 .9 1zm3.82-6.53a4.03 4.03 0 0 1-.03-.4 1.65 1.65 0 0 1 .13-.73.28.28 0 0 0-.07 0 .76.76 0 0 0-.18.02 1.05 1.05 0 0 0-.53.32 5.1 5.1 0 0 0-.77 3.3 4.8 4.8 0 0 0 .93 3.4 1.28 1.28 0 0 0 .88.45h.1a13.97 13.97 0 0 1-.3-3.38 2.87 2.87 0 0 1 1.1-2.48 2.37 2.37 0 0 1 1.1-.43 1.98 1.98 0 0 1 .3-.02 1.92 1.92 0 0 1 .8.15q1.1.45 1.4 2.64a10.93 10.93 0 0 1 .1 1.4 8.23 8.23 0 0 1-.3 2.2 3.04 3.04 0 0 0 .9-.4 1.73 1.73 0 0 0 .9-1.3v-.8a7.9 7.9 0 0 0-.4-2.6 3 3 0 0 0-2.92-2.3 3.73 3.73 0 0 0-2.85 1.2zM97.3 17a3.37 3.37 0 0 1-1.85.6 3.08 3.08 0 0 1-.5-.04 2.37 2.37 0 0 1-1.47-.75 2.08 2.08 0 0 1-.47-1.3v-.1a3 3 0 0 1 .3-1.3 2.7 2.7 0 0 1 .9-1 2.14 2.14 0 0 1 1.3-.4 2.03 2.03 0 0 1 .7.1 1.74 1.74 0 0 1 .7.5 1.17 1.17 0 0 1 .3.7v.2a1.16 1.16 0 0 1-.7 1.2 3.36 3.36 0 0 1-1.3.3 1.93 1.93 0 0 1-.4 0 1.12 1.12 0 0 1-.5-.3v.1a1.07 1.07 0 0 0 .2.63 1.48 1.48 0 0 0 1.3.55 3.56 3.56 0 0 0 .5 0 2.84 2.84 0 0 0 2.2-1.2 1.7 1.7 0 0 0 .3-.9v-.2a2.5 2.5 0 0 0-.1-.7 2.84 2.84 0 0 0-1.3-1.6 3.2 3.2 0 0 0-1.64-.4 3.85 3.85 0 0 0-.6.07 3.52 3.52 0 0 0-1.04.3 3.4 3.4 0 0 0-.87.58 3.75 3.75 0 0 0-1.2 1.9 3.33 3.33 0 0 0-.1.86 3.93 3.93 0 0 0 .07.8 4.03 4.03 0 0 0 .7 1.6 3.3 3.3 0 0 0 1.4 1.1 3.42 3.42 0 0 0 1.34.23 4.4 4.4 0 0 0 .8-.1 2.53 2.53 0 0 0 2.1-1.42 2.22 2.22 0 0 0 .2-.8 1.96 1.96 0 0 0 0-.3 4.1 4.1 0 0 1-.93.8zm8.3.15a1.7 1.7 0 0 1-1 .47 4.87 4.87 0 0 1-.64.05 2.65 2.65 0 0 1-.64-.07 2.05 2.05 0 0 1-1.04-.64 5.05 5.05 0 0 1-.97-3.45l.1-.6a4.5 4.5 0 0 0 1.2.5 4.46 4.46 0 0 0 1.2.2 1.98 1.98 0 0 0 1.4-.5 1.54 1.54 0 0 0 .5-.8 2.47 2.47 0 0 1-1.1.2 5.36 5.36 0 0 1-2.8-.9 8.48 8.48 0 0 1 .94-3.5 2.03 2.03 0 0 0-1.17.6A4.87 4.87 0 0 0 100 12q-.05.54-.05 1.06a9.1 9.1 0 0 0 .64 3.8 3.44 3.44 0 0 0 3.4 1.96q1.6 0 1.9-1a1.67 1.67 0 0 0 .1-.5 1.63 1.63 0 0 0-.1-.53 1.44 1.44 0 0 1-.3.3zM42.37.73a.7.7 0 0 0-.13 0 1.26 1.26 0 0 0-.32.04 2.07 2.07 0 0 0-1 .8q-1.46 2.04-1.46 8t1.53 8.2a1.95 1.95 0 0 0 1.4 1.05h.1q-.6-6.17-.6-9.93a79 79 0 0 1 .4-8.2zm-9.82-.6a.62.62 0 0 0 0 .14 1.13 1.13 0 0 0 .04.3 1.94 1.94 0 0 0 .7.94q1.9 1.4 7.7 1.4t8-1.4A1.82 1.82 0 0 0 50.1.1V0q-6 .57-9.65.57T32.5.14zm19.7 9.9a1.44 1.44 0 1 1-1.4 1.45 1.42 1.42 0 0 1 1.4-1.43zm12.67.02a1.44 1.44 0 1 1-1.4 1.43 1.42 1.42 0 0 1 1.4-1.43z" class="cls-1"/></svg>