<svg xmlns="http://www.w3.org/2000/svg" width="100" height="32" viewBox="0 0 90 32"><defs><style>.cls-1 { fill: #fff; fill-rule: evenodd; }</style></defs><path d="M24 10c0-1.7-1.3-3-3-3-.7 0-1.3.2-1.8.6-.7-1-2-1.6-3.2-1.6s-2.5.6-3.2 1.6c-.5-.4-1-.6-1.8-.6-1.7 0-3 1.3-3 3H6v12h3v3c-.3.3-.5.6-.5 1 0 .6.4 1 1 1 .8 0 1.5-.7 1.5-1.6V22h1v3c-.3.3-.5.6-.5 1 0 .6.4 1 1 1 .8 0 1.5-.7 1.5-1.6V22h4v3c-.3.3-.5.6-.5 1 0 .6.4 1 1 1 .8 0 1.5-.7 1.5-1.6V22h1v3c-.3.3-.5.6-.5 1 0 .6.4 1 1 1 .8 0 1.5-.7 1.5-1.6V22h3V10h-2zm0 10H8v-8h16v8zm-9-4c0-.6.4-1 1-1s1 .4 1 1-.4 1-1 1-1-.4-1-1zm4 0c0-.6.4-1 1-1s1 .4 1 1-.4 1-1 1-1-.4-1-1zm-8 0c0-.6.4-1 1-1s1 .4 1 1-.4 1-1 1-1-.4-1-1z" class="cls-1"/><svg x="32" y="11"><path id="Icons8" class="cls-1" d="M2.3 16V1H.6v15h1.7zm11.3-.4V14a7.6 7.6 0 0 1-2.8.7 3 3 0 0 1-2.5-1 5.2 5.2 0 0 1-1-3.3Q7.3 6 11 6a5.5 5.5 0 0 1 1 .2 8 8 0 0 1 1.3.4l.5-1.5a5.3 5.3 0 0 0-1.3-.2 7.7 7.7 0 0 0-1.6 0A5 5 0 0 0 7 6a6.4 6.4 0 0 0-1.3 4.5A6.2 6.2 0 0 0 7 14.7a4.8 4.8 0 0 0 3.8 1.5 6 6 0 0 0 2.8-.6zm11-9.5A4.8 4.8 0 0 0 21 4.8 5 5 0 0 0 17 6a6.2 6.2 0 0 0-1.3 4.4 7 7 0 0 0 .6 3 4.7 4.7 0 0 0 1.8 2 5 5 0 0 0 3 .8 5 5 0 0 0 3.7-1.5 6.2 6.2 0 0 0 1.4-4.3A6.2 6.2 0 0 0 24.7 6zm-6.3 1a3 3 0 0 1 2.5-1 3 3 0 0 1 2.6 1 5.2 5.2 0 0 1 .8 3.5 5.3 5.3 0 0 1-.8 3.3 3 3 0 0 1-2.6 1 3 3 0 0 1-2.5-1 5.3 5.3 0 0 1-1-3.3 5.3 5.3 0 0 1 1-3.3zm20.4 9V8.8a4.2 4.2 0 0 0-1-3.2 4.3 4.3 0 0 0-3-1 4.8 4.8 0 0 0-2.2.5A3.5 3.5 0 0 0 31 6.3l-.3-1.5h-1.4V16H31v-6a4.8 4.8 0 0 1 .8-3 3.2 3.2 0 0 1 2.6-1 2.5 2.5 0 0 1 2 .7 3 3 0 0 1 .6 2V16h1.7zM49 11a7.4 7.4 0 0 0-3-1.3 16.6 16.6 0 0 1-2-.8 2.3 2.3 0 0 1-.8-.7 1.3 1.3 0 0 1-.2-.8 1.2 1.2 0 0 1 .6-1 3.5 3.5 0 0 1 2-.4 8 8 0 0 1 3 .8l.5-1.4a9 9 0 0 0-3.4-.7 5.2 5.2 0 0 0-3 .8 2.5 2.5 0 0 0-1.2 2A2.6 2.6 0 0 0 42 9a3 3 0 0 0 1 1 12 12 0 0 0 2 1 9 9 0 0 1 2.3 1.2 1.5 1.5 0 0 1 0 2.4 4 4 0 0 1-2.2.4 7.3 7.3 0 0 1-1.5-.2 8.4 8.4 0 0 1-1.8-.7v1.6a7 7 0 0 0 3.5.7 5.5 5.5 0 0 0 3.4-.8 2.8 2.8 0 0 0 1.2-2.5 2.6 2.6 0 0 0-.7-2zm4.2-9A3.2 3.2 0 0 0 52 4.4a3.7 3.7 0 0 0 .7 2 5.8 5.8 0 0 0 2 1.8q-3 1.4-3 4a3.6 3.6 0 0 0 1.2 3 5.7 5.7 0 0 0 3.4 1 5.3 5.3 0 0 0 3.6-1 3.7 3.7 0 0 0 1.4-3 3.4 3.4 0 0 0-.8-2.3A7.4 7.4 0 0 0 58 8a6 6 0 0 0 2.3-1.6 3.3 3.3 0 0 0 .6-2 3.2 3.2 0 0 0-1.4-2.7 5 5 0 0 0-3.2-1 5 5 0 0 0-3.2 1zm.6 8.5A6 6 0 0 1 56 9a8.2 8.2 0 0 1 3 1.4 2.4 2.4 0 0 1 .7 1.7 2.4 2.4 0 0 1-.8 2 3.6 3.6 0 0 1-2.6 1 3.8 3.8 0 0 1-2.4-1 2.3 2.3 0 0 1-.7-1.8 2.8 2.8 0 0 1 .6-2zM58.3 3a2 2 0 0 1 .8 1.6 2.5 2.5 0 0 1-.6 1.7 5.6 5.6 0 0 1-2 1.4 6.3 6.3 0 0 1-2-1.7 2.3 2.3 0 0 1-.7-1.6 2 2 0 0 1 .8-1.6 3 3 0 0 1 2-.6 3 3 0 0 1 2 .6z"/></svg></svg>