<svg xmlns="http://www.w3.org/2000/svg" width="142" height="19"><defs><style>.cls-1 { fill: #fff; fill-rule: evenodd; }</style></defs><path id="Iconizer.net" d="M2.3 18.08V.95H.33v17.13h2zM19.45 3.4l.84-1.7a10.62 10.62 0 0 0-4.7-1 8.65 8.65 0 0 0-4.4 1.08 7.1 7.1 0 0 0-2.9 3.07 10.3 10.3 0 0 0-1 4.64A9.46 9.46 0 0 0 9.4 16a7.43 7.43 0 0 0 5.84 2.3 12.6 12.6 0 0 0 4.4-.67V15.9a15.34 15.34 0 0 1-4.1.65 5.6 5.6 0 0 1-4.5-1.84 7.74 7.74 0 0 1-1.56-5.2 7.6 7.6 0 0 1 1.62-5.1 5.6 5.6 0 0 1 4.43-1.8 9.08 9.08 0 0 1 3.9.9zm17.9-.38A7.3 7.3 0 0 0 31.6.7 7.46 7.46 0 0 0 25.75 3a9.4 9.4 0 0 0-2.07 6.5 9.5 9.5 0 0 0 2.04 6.5 7.4 7.4 0 0 0 5.84 2.3 7.3 7.3 0 0 0 5.78-2.34 9.43 9.43 0 0 0 2.08-6.47A9.42 9.42 0 0 0 37.35 3zm-10.1 1.24a5.3 5.3 0 0 1 4.34-1.8 5.2 5.2 0 0 1 4.3 1.8 8.18 8.18 0 0 1 1.4 5.24 8.24 8.24 0 0 1-1.5 5.27 5.2 5.2 0 0 1-4.3 1.8 5.26 5.26 0 0 1-4.3-1.8 8.13 8.13 0 0 1-1.5-5.3 8.05 8.05 0 0 1 1.5-5.22zm30.6-3.3h-1.88v9.82q-.02.74.06 2.46t.1 2.03h-.1L46.7.95h-2.26v17.13h1.84V8.35q0-2.1-.18-4.64h.1l9.35 14.4h2.28V1zm7.9 17.12V.95h-2v17.13h2zM82 16.28h-9.34l9.1-13.77V1H70.52v1.8h8.8l-9.07 13.7v1.56H82v-1.8zm14.08.02h-7.56V10h7.1V8.24h-7.1V2.72h7.56V.95h-9.55v17.13h9.55V16.3zm10.56-5.34l4.15 7.12h2.3l-4.7-7.7a4.55 4.55 0 0 0 3.4-4.6 4.38 4.38 0 0 0-1.5-3.63 7.4 7.4 0 0 0-4.67-1.2H101v17.13h2v-7.12h3.57zm-3.57-8.26h2.6a5.43 5.43 0 0 1 3.2.75 2.86 2.86 0 0 1 1 2.45 3.12 3.12 0 0 1-.98 2.5 4.7 4.7 0 0 1-3.1.85H103V2.7zm12.96 15.37a.8.8 0 0 0 .57.2.8.8 0 0 0 .62-.22.96.96 0 0 0 .22-.7.98.98 0 0 0-.22-.68.8.8 0 0 0-.62-.24.76.76 0 0 0-.6.24 1.02 1.02 0 0 0-.2.7.94.94 0 0 0 .23.7zm10.62.02v-4.9a2.78 2.78 0 0 0-.7-2.1 2.85 2.85 0 0 0-2.02-.7 3.17 3.17 0 0 0-1.4.3 2.32 2.32 0 0 0-.98.8h-.06l-.2-1.05h-.9V18h1.1v-3.9a3.2 3.2 0 0 1 .5-2.1 2.15 2.15 0 0 1 1.7-.63 1.7 1.7 0 0 1 1.3.44 1.96 1.96 0 0 1 .4 1.4v4.9h1.1zm7.5 0a6 6 0 0 0 1.13-.4v-1a6.03 6.03 0 0 1-2.4.5 2.3 2.3 0 0 1-1.78-.7 2.97 2.97 0 0 1-.66-2h5.16v-.8a3.55 3.55 0 0 0-.82-2.4 2.82 2.82 0 0 0-2.23-.95 2.96 2.96 0 0 0-2.4 1.07 4.34 4.34 0 0 0-.9 2.9 3.92 3.92 0 0 0 .97 2.8 3.44 3.44 0 0 0 2.62 1 6.4 6.4 0 0 0 1.3-.1zm-.25-6.1a2.5 2.5 0 0 1 .48 1.6h-3.92a2.7 2.7 0 0 1 .63-1.7 1.85 1.85 0 0 1 1.4-.6 1.68 1.68 0 0 1 1.3.6zm5.87 4.9a1.52 1.52 0 0 1-.32-1.1v-4.4h2.17v-.9h-2.17V8.8h-.66l-.5 1.6-1.1.47v.54h1v4.5a1.98 1.98 0 0 0 2.2 2.3 4.08 4.08 0 0 0 .6-.04 2.08 2.08 0 0 0 .53-.14v-.85a3.77 3.77 0 0 1-.45.1 3.7 3.7 0 0 1-.6.03 1.12 1.12 0 0 1-.87-.4z" class="cls-1"/></svg>