<svg xmlns="http://www.w3.org/2000/svg" width="182" height="24"><defs><style>.cls-1 { fill: #fff; fill-rule: evenodd; }</style></defs><path d="M64.77 4.3a3.03 3.03 0 1 1-3.1 3.03 3.06 3.06 0 0 1 3.1-3.04zm-7.74 8.33a2.27 2.27 0 1 1-2.33 2.28 2.3 2.3 0 0 1 2.33-2.2zm13.15-3.4a.38.38 0 1 1-.38.37.38.38 0 0 1 .38-.38zm-9.1-1.35a2.5 2.5 0 0 0-3.47 0 2.42 2.42 0 0 0 0 3.44 2.48 2.48 0 0 0 3.5 0 2.42 2.42 0 0 0 0-3.44zm11.43 6.27a.76.76 0 1 1-.7.76.77.77 0 0 1 .8-.7zm-2.2 4.97a1.14 1.14 0 1 1-1.1 1.14 1.15 1.15 0 0 1 1.2-1.14zm-5.4 1.85a1.52 1.52 0 1 1-1.5 1.52 1.53 1.53 0 0 1 1.6-1.6zm-5.4-2.65a1.9 1.9 0 1 1-1.9 1.9 1.92 1.92 0 0 1 2-1.9zM6 .22H0v22.9h2.67v-9h2.7q4.46 0 6.84-1.88a6.4 6.4 0 0 0 2.4-5.35Q14.6.2 6 .2zm-3.3 2.3h3a7.85 7.85 0 0 1 4.65 1.1 3.94 3.94 0 0 1 1.5 3.4 4.2 4.2 0 0 1-1.6 3.66q-1.58 1.15-5.14 1.15H2.6v-9.3zm21.25 4.03a7.56 7.56 0 0 0-2.32 2.58h-.1l-.3-3.18h-2.1v17.18h2.6V13.9a6.15 6.15 0 0 1 1.5-4.2A4.6 4.6 0 0 1 26.8 8a8.97 8.97 0 0 1 1.88.23l.37-2.4a10.3 10.3 0 0 0-2.06-.2 5.23 5.23 0 0 0-3 .92zM42.5 23.18a13.92 13.92 0 0 0 2.63-.85V20a13.97 13.97 0 0 1-5.5 1.17 5.33 5.33 0 0 1-4.1-1.57A6.8 6.8 0 0 1 34 15h11.9v-1.64a8.1 8.1 0 0 0-1.9-5.6 6.53 6.53 0 0 0-5.12-2.12 6.85 6.85 0 0 0-5.53 2.44 9.93 9.93 0 0 0-2.05 6.6 8.95 8.95 0 0 0 2.22 6.44 7.96 7.96 0 0 0 6.03 2.32 14.85 14.85 0 0 0 3-.26zm-.54-14.06a5.7 5.7 0 0 1 1.1 3.77H34a6.2 6.2 0 0 1 1.47-3.8 4.28 4.28 0 0 1 3.33-1.3 3.9 3.9 0 0 1 3.13 1.3zM52.92 0H50.3v23.13h2.62V0zm36.1 23.13V11.4a5.67 5.67 0 0 0-1.48-4.37 6.6 6.6 0 0 0-4.58-1.37 12.18 12.18 0 0 0-3.05.4 12.35 12.35 0 0 0-2.8 1.08l.8 2a11.44 11.44 0 0 1 4.9-1.33 3.6 3.6 0 0 1 2.8 1 4.34 4.34 0 0 1 .9 3v1.1l-2.9.1q-8.3.3-8.3 5.5a4.8 4.8 0 0 0 1.5 3.8 5.8 5.8 0 0 0 4.1 1.3A7.9 7.9 0 0 0 84 23a7.26 7.26 0 0 0 2.6-2.2h.1l.5 2.45h1.95zM78.8 20.56a2.67 2.67 0 0 1-.86-2.15 2.9 2.9 0 0 1 1.38-2.6 9.56 9.56 0 0 1 4.5-.9l2.62-.1v1.6a4.9 4.9 0 0 1-1.4 3.8 5.32 5.32 0 0 1-3.84 1.38 3.57 3.57 0 0 1-2.4-.75zm27.74 2.57h2.12V0h-2.6v5.73l.05 1.2.1 1.25h-.2a6.3 6.3 0 0 0-5.4-2.54A6.38 6.38 0 0 0 95.4 8a10.27 10.27 0 0 0-1.9 6.6 10.1 10.1 0 0 0 1.9 6.54 6.43 6.43 0 0 0 5.26 2.3 6.16 6.16 0 0 0 5.43-2.62h.1zM97.4 19.6a8.44 8.44 0 0 1-1.22-5 8.8 8.8 0 0 1 1.22-5 4 4 0 0 1 3.5-1.8 4.65 4.65 0 0 1 3.9 1.57q1.23 1.56 1.23 5.22v.5q0 3.2-1.2 4.7a4.78 4.78 0 0 1-3.9 1.4 4.12 4.12 0 0 1-3.55-1.7zm27.1 3.6a13.88 13.88 0 0 0 2.6-.88V20a13.97 13.97 0 0 1-5.5 1.17 5.33 5.33 0 0 1-4.1-1.57 6.8 6.8 0 0 1-1.54-4.6h11.9v-1.64a8.12 8.12 0 0 0-1.9-5.6 6.53 6.53 0 0 0-5.13-2.12 6.85 6.85 0 0 0-5.5 2.45 9.92 9.92 0 0 0-2.07 6.6 8.95 8.95 0 0 0 2.22 6.4 7.95 7.95 0 0 0 6.04 2.3 14.84 14.84 0 0 0 2.97-.3zm-.55-14.1a5.7 5.7 0 0 1 1.1 3.78H116a6.2 6.2 0 0 1 1.46-3.74 4.28 4.28 0 0 1 3.3-1.34 3.9 3.9 0 0 1 3.17 1.3zm13.26-2.56a7.55 7.55 0 0 0-2.3 2.58h-.1l-.3-3.18h-2.1v17.18h2.6V13.9a6.15 6.15 0 0 1 1.5-4.2A4.6 4.6 0 0 1 140 8a8.97 8.97 0 0 1 1.9.23l.35-2.4a10.3 10.3 0 0 0-2.07-.2 5.24 5.24 0 0 0-2.98.92zm18.4 9.05a11.3 11.3 0 0 0-4.1-2.3 25.66 25.66 0 0 1-3-1.3 3.5 3.5 0 0 1-1.1-1 1.94 1.94 0 0 1-.3-1.2 1.8 1.8 0 0 1 1-1.6 5.44 5.44 0 0 1 2.8-.6 12.57 12.57 0 0 1 4.7 1l.95-2.1a13.85 13.85 0 0 0-5.5-1.1 8.03 8.03 0 0 0-4.7 1.2 3.85 3.85 0 0 0-1.7 3.3 3.94 3.94 0 0 0 .5 2 4.68 4.68 0 0 0 1.5 1.5 18.54 18.54 0 0 0 3.46 1.56 13.82 13.82 0 0 1 3.4 1.7 2.23 2.23 0 0 1-.2 3.7 6.26 6.26 0 0 1-3.17.66 11.2 11.2 0 0 1-2.75-.37 12.96 12.96 0 0 1-2.7-1v2.4a11 11 0 0 0 5.4 1.1 8.48 8.48 0 0 0 5-1.3 4.3 4.3 0 0 0 1.8-3.7 3.94 3.94 0 0 0-1.04-2.8zm3.7 7.4a1.06 1.06 0 0 0 1.4 0 1 1 0 0 0 .3-.7.97.97 0 0 0-.2-.7.9.9 0 0 0-.7-.3.93.93 0 0 0-.7.2.96.96 0 0 0-.2.7 1 1 0 0 0 .23.7zm9.7-4.5a2.23 2.23 0 0 0-2.5-2.6 3 3 0 0 0-1.3.2 2.06 2.06 0 0 0-.9.7l-.2-.9h-1.13v7h1.5v-3.4a3.04 3.04 0 0 1 .44-1.85 1.64 1.64 0 0 1 1.4-.54 1.25 1.25 0 0 1 1 .4 1.85 1.85 0 0 1 .33 1.2V23h1.4v-4.5zm6.4 4.5a4.55 4.55 0 0 0 1.1-.4v-1.2a6.03 6.03 0 0 1-1.1.4 5.4 5.4 0 0 1-1.13.1 1.92 1.92 0 0 1-1.47-.6 2.27 2.27 0 0 1-.7-1.3h4.64v-.8a3.18 3.18 0 0 0-.8-2.3 2.88 2.88 0 0 0-2.17-.9 2.95 2.95 0 0 0-2.36.94 3.92 3.92 0 0 0-.84 2.67 3.57 3.57 0 0 0 .9 2.6 3.38 3.38 0 0 0 2.5 1 6.76 6.76 0 0 0 1.2-.1zm-.4-5.6a1.92 1.92 0 0 1 .4 1.3H172a2.12 2.12 0 0 1 .5-1.3 1.5 1.5 0 0 1 1.14-.5 1.43 1.43 0 0 1 1.1.4zm5.5 4.2a1.04 1.04 0 0 1-.26-.8v-3.7h2V16h-2v-1.5h-.9l-.5 1.48-1.03.54v.7h.9v3.8a1.9 1.9 0 0 0 2.1 2.2 4.4 4.4 0 0 0 .8-.08 3 3 0 0 0 .65-.2v-1.1a3.62 3.62 0 0 1-1.1.17.98.98 0 0 1-.7-.2z" class="cls-1"/></svg>