<svg xmlns="http://www.w3.org/2000/svg" width="76.1" height="33" viewBox="0 0 264.4 114.7"><path fill="#FFF" d="M199.1 26.1l18.9-3.3v72.4H199v-69zm27.6 0v69.1h18.8V22.8L226.7 26zm-54.5 69.1h18.9v-53h-18.9v53zM47.5 49.7c-2.4-.1-8-.5-8-5.5 0-6 8-6 11-6a65.8 65.8 0 0 1 21.9 5h.2V26.8l-.3-.1c-5.7-2-12.4-4-24.7-4-21.3 0-28.8 12.5-28.8 23 0 6.2 2.6 20.6 27 22.3 2 .1 7.5.4 7.5 5.6 0 4.2-4.5 6.7-12 6.7-8.3 0-16.3-2.1-21.2-4.1v17C27.4 95 35.6 96 45.3 96c20.8 0 30-11.7 30-23.4C75.4 59.5 65 51 47.6 49.7zm114-8.2c-17.4.5-26.2 8.3-26.2 23.9v29.8h19V71c0-9.3 1.2-13.3 12.3-13.7V41.7c-1.9-.4-5-.2-5-.2zm-51.1.7c-.4 1-3.5 9.6-10.8 18.4V22.8l-19.5 3.8v68.6h19.5V74a73.7 73.7 0 0 1 8.4 21.2h23.4C129 85.6 119 68 119 68c9-11.5 13-23.7 13.6-25.7h-22.2zm71.3-5a9.3 9.3 0 1 0 0-18.7 9.3 9.3 0 0 0 0 18.6z"/></svg>