<svg xmlns="http://www.w3.org/2000/svg" width="31" height="31" viewBox="0 0 561 561"><path d="M281.281 500.75c-.53-.688-2.465-3.95-4.3-7.25-4.723-8.496-14.031-22.403-22.421-33.5-9.124-12.068-9.108-12.039-7.438-13.096 1.715-1.087 70.914-1.168 72.619-.085.877.557-2.21 5.377-10.528 16.44-6.473 8.608-14.907 20.845-18.741 27.193-3.835 6.348-7.254 11.543-7.6 11.545-.345.002-1.06-.56-1.591-1.247zm-49.737-75.49c-17.22-24.344-37.904-46.767-54.544-59.132-9.934-7.381-26.096-17.156-39.221-23.719-5.103-2.552-9.466-4.813-9.696-5.024-1.988-1.836 7.35-1.255 35.417 2.2 41.916 5.16 67.07 12.342 98.5 28.123 10.175 5.109 19.01 9.29 19.633 9.29 1.072.002 38.526-41.99 39.172-43.918.168-.5-.507-1.163-1.5-1.472-.993-.31-52.43-11.619-114.305-25.133-130.76-28.558-117-25.4-117-26.856 0-.64 3.487-4.069 7.75-7.62 41.168-34.29 88.922-81.355 132.693-130.773L238.386 130h89.28l25.417 26.178c37.242 38.357 58.696 57.578 73.867 66.176 5.16 2.925 5.358 3.168 2.812 3.461-3.131.36-34.12-3.966-49.762-6.947-31.317-5.969-59.404-15.518-88.311-30.024-8.262-4.146-10.185-4.773-11.27-3.672-4.917 4.992-34.399 40.56-34.408 41.51-.006.651.777 1.418 1.739 1.705.963.287 52.15 11.786 113.75 25.555 61.6 13.768 113.013 25.272 114.25 25.564 1.238.293 2.25.92 2.25 1.395 0 .474-6.361 6.39-14.135 13.146-50.505 43.89-87.682 81.931-126.51 129.453l-8.988 11-44.96.26-44.959.26zM246 117.942c0-.581 5.124-7.894 11.388-16.25 6.263-8.355 14.632-20.479 18.598-26.94 3.967-6.461 7.578-11.521 8.026-11.245.447.277 4.242 6.239 8.432 13.248 4.19 7.01 12.314 19 18.054 26.644 5.74 7.645 10.199 14.283 9.91 14.75-.8 1.296-74.408 1.091-74.408-.207z" fill="#f9fcfd"/><path d="M259.5 564.304C132.83 552.925 29.843 460.958 5.55 337.528 1.37 316.28.558 307.415.558 283c0-23.622.775-32.72 4.525-53.147C15.881 171.036 47.842 113.936 92.5 73.679 136.823 33.725 188.768 10.024 250 1.82c14.395-1.929 54.69-1.62 69.5.533 52.084 7.572 97.26 26.716 138.5 58.693 12.407 9.62 35.632 32.776 45.797 45.662 50.501 64.015 70.834 143.797 57.188 224.393-8.074 47.686-29.255 93.631-60.642 131.546-9.741 11.767-29.558 31.31-41.33 40.762-42.324 33.978-95.822 55.508-150.513 60.572-10.234.947-39.88 1.144-49 .324zm30.972-73.852c3.834-6.348 12.268-18.585 18.74-27.193 8.32-11.063 11.406-15.883 10.529-16.44-1.705-1.083-70.904-1.002-72.62.084-1.669 1.058-1.685 1.03 7.439 13.097 8.39 11.097 17.698 25.004 22.421 33.5 3.731 6.71 4.973 8.502 5.891 8.497.346-.002 3.765-5.198 7.6-11.545zm46.883-66.952c38.828-47.522 76.005-85.563 126.51-129.453 7.774-6.756 14.135-12.672 14.135-13.146 0-.475-1.012-1.102-2.25-1.395-1.238-.292-52.65-11.796-114.25-25.564-61.6-13.769-112.787-25.268-113.75-25.555-.963-.287-1.745-1.054-1.739-1.704.01-.952 29.49-36.52 34.408-41.51 1.085-1.102 3.008-.475 11.27 3.67C320.596 203.35 348.683 212.9 380 218.869c15.642 2.981 46.631 7.308 49.762 6.947 2.546-.293 2.348-.536-2.812-3.46-15.171-8.6-36.625-27.82-73.867-66.177L327.667 130h-89.28l-9.944 11.226C184.673 190.644 136.918 237.708 95.75 272c-4.263 3.55-7.75 6.98-7.75 7.62 0 1.455-13.76-1.703 117 26.855 61.875 13.514 113.312 24.824 114.305 25.133.993.309 1.668.971 1.5 1.472-.646 1.928-38.1 43.92-39.172 43.918-.623 0-9.458-4.181-19.633-9.29-31.43-15.781-56.584-22.963-98.5-28.123-28.067-3.455-37.405-4.036-35.417-2.2.23.211 4.593 2.472 9.696 5.024 13.125 6.563 29.287 16.338 39.221 23.72 16.64 12.364 37.324 34.787 54.544 59.131l6.904 9.76 44.96-.26 44.96-.26 8.987-11zm-16.947-305.35c.289-.468-4.17-7.106-9.91-14.75-5.74-7.645-13.864-19.635-18.054-26.645-4.19-7.01-7.985-12.971-8.432-13.248-.448-.276-4.06 4.784-8.026 11.245-3.966 6.461-12.335 18.585-18.598 26.94-6.264 8.356-11.388 15.669-11.388 16.25 0 1.298 73.607 1.503 74.408.207z" fill="#2d9bda"/></svg>